<?xml version="1.0" standalone="no"?><!DOCTYPE svg PUBLIC "-//W3C//DTD SVG 1.1//EN" "http://www.w3.org/Graphics/SVG/1.1/DTD/svg11.dtd"><svg t="1691977444480" class="icon" viewBox="0 0 1024 1024" version="1.1" xmlns="http://www.w3.org/2000/svg" p-id="1513" xmlns:xlink="http://www.w3.org/1999/xlink" width="200" height="200"><path d="M890.88 378.88c-4.388571-4.388571-16.091429-35.108571-57.051429-35.108571H190.171429c-24.868571 0-43.885714 11.702857-57.051429 33.645714-14.628571 21.942857-133.12 204.8-133.12 244.297143v248.685714c0 39.497143 33.645714 73.142857 73.142857 73.142857h877.714286c39.497143 0 73.142857-33.645714 73.142857-73.142857v-248.685714c0-39.497143-133.12-242.834286-133.12-242.834286zM658.285714 607.085714c-16.091429-1.462857-27.794286 5.851429-32.182857 20.48v5.851429c0 64.365714-51.2 119.954286-114.102857 119.954286s-115.565714-55.588571-115.565714-119.954286v-7.314286c-8.777143-23.405714-30.72-19.017143-30.72-19.017143H58.514286l102.4-190.171428s17.554286-30.72 43.885714-29.257143h614.4c21.942857 0 26.331429 0 42.422857 26.331428L965.485714 607.085714H658.285714z m-138.971428-394.971428c11.702857 0 21.942857-10.24 21.942857-21.942857V87.771429c0-11.702857-10.24-21.942857-21.942857-21.942858S497.371429 76.068571 497.371429 87.771429v102.4c0 11.702857 10.24 21.942857 21.942857 21.942857zM291.108571 248.685714c8.777143 8.777143 21.942857 8.777143 30.72 0 8.777143-8.777143 8.777143-21.942857 0-30.72L250.148571 146.285714c-8.777143-8.777143-21.942857-8.777143-30.72 0-8.777143 8.777143-8.777143 21.942857 0 30.72l71.68 71.68z m449.097143 0l73.142857-73.142857c8.777143-8.777143 8.777143-21.942857 0-30.72-8.777143-8.777143-21.942857-8.777143-30.72 0l-73.142857 73.142857c-8.777143 8.777143-8.777143 21.942857 0 30.72 8.777143 8.777143 21.942857 8.777143 30.72 0z" fill="#DDDDDD" p-id="1514"></path></svg>